{"title":"Alicia Keys - Girl On Fire (Ft. Nicki Minaj) {M4A+MP4} (1080p)x2","uid":7794668,"size":60227623,"categoryP":"video","categoryS":"music_videos","magnet":"?xt=urn:btih:498eb22edb93e336cd204d47adce74fe80a0c033&amp;dn=Alicia+Keys+-+Girl+On+Fire+%28Ft.+Nicki+Minaj%29+%7BM4A%2BMP4%7D+%281080p%29x2&amp;tr=udp%3A%2F%2Ftracker.openbittorrent.com%3A80&amp;tr=udp%3A%2F%2Fopen.demonii.com%3A1337&amp;tr=udp%3A%2F%2Ftracker.coppersurfer.tk%3A6969&amp;tr=udp%3A%2F%2Fexodus.desync.com%3A6969","seeders":1,"leechers":8,"uploader":"Vitamin_X","files":-1,"time":1352113832,"description":"Alicia Keys - Girl On Fire (Ft. Nicki Minaj) {M4A+MP4} (1080p) x264 [VX] [P2PDL]\n\nCover:  &lt;a href=&quot;\nhttp://www.shotpix.com/images/44128853288988905352.jpg&quot; rel=&quot;nofollow&quot; target=&quot;_NEW&quot;&gt;\nhttp://www.shotpix.com/images/44128853288988905352.jpg&lt;/a&gt;\n\nRelease Title: Alicia Keys - Girl On Fire (Ft. Nicki Minaj)  (2012)\n\nMusic video by Alicia Keys performing Girl On Fire Inferno version Featuring Nicki Minaj. (C) 2012 RCA Records, a division of Sony Music Entertainment.\n\n                             1080p Full HD MP4 Video\n                                      +\n                             128 Kbps/VBR M4A Audio\n\nGeneral\nFormat                         : MPEG-4\nFormat profile                 : Base Media / Version 2\nCodec ID                       : mp42\nFile size                      : 52.9 MiB\nDuration                       : 4mn 36s\n\nVideo\nID                             : 1\nFormat                         : AVC\nFormat/Info                    : Advanced Video Codec\nBit rate                       : 1 475 Kbps\nWidth                          : 1 920 pixels\nHeight                         : 1 080 pixels\nDisplay aspect ratio           : 16:9\nFrame rate mode                : Constant\nFrame rate                     : 25.000 fps\nStream size                    : 48.6 MiB (92%)\nWriting library                : x264 core 128\n\nAudio\nID                             : 2\nFormat                         : AAC\nBit rate                       : 127 Kbps\nChannel(s)                     : 2 channels\nChannel positions              : Front: L R\nSampling rate                  : 48.0 KHz\nStream size                    : 4.18 MiB (8%)\n\nSubtitles                      : No\n\n\nScreens:\n &lt;a href=&quot;\nhttp://www.shotpix.com/images/12222543674263697352.jpg&quot; rel=&quot;nofollow&quot; target=&quot;_NEW&quot;&gt;\nhttp://www.shotpix.com/images/12222543674263697352.jpg&lt;/a&gt; &lt;a href=&quot;\nhttp://www.shotpix.com/images/42535012756994194982.jpg&quot; rel=&quot;nofollow&quot; target=&quot;_NEW&quot;&gt;\nhttp://www.shotpix.com/images/42535012756994194982.jpg&lt;/a&gt;\n\nThumbs:\n &lt;a href=&quot;\nhttp://www.shotpix.com/images/07366348656537767474.jpg&quot; rel=&quot;nofollow&quot; target=&quot;_NEW&quot;&gt;\nhttp://www.shotpix.com/images/07366348656537767474.jpg&lt;/a&gt;\n------------------------------------------------------------------------\n\n\nNotes:\n\n* Recommended to use latest version VLC Media Player.\n* Install shark007 codecs in case of any kind of problem in playback (For non-VLC Media Player users).\n* Alternatively, install Core AVC codecs, the fastest decoder that there is coupled with Community Center Codec Pack and play on Windows Media Player Classic.\n* Read NFO\n* Help in seeding as much as you can. \n\n\nGreets to: VYTO, Riddl3r, staff members at ExtraTorrent, TPB,KAT, 1337x, PublicHD, Ahashare,\nSilverTorrent, TorrentMafia, Digtorrent, BTScene, P2PDL, and all others\n\n\nEncoder Notes: Looking For Early Access To Anything You Can Provide DVDScr, R5, DVDRips, BluRay, Direct Audio, Early Music\nReleases, Seedboxes, Links, Dedicated Servers anything u can provide, Advance / Promo CDs/DVDs. If You Got anything to\noffer contact me at &quot;&lt;a class=&quot;__cf_email__&quot; href=&quot;/cdn-cgi/l/email-protection&quot; data-cfemail=&quot;076468697366647347736e697e6a296272&quot;&gt;[email&amp;#160;protected]&lt;/a&gt;&lt;script cf-hash='f9e31' type=&quot;text/javascript&quot;&gt;\n/* &lt;![CDATA[ */!function(){try{var t=&quot;currentScript&quot;in document?document.currentScript:function(){for(var t=document.getElementsByTagName(&quot;script&quot;),e=t.length;e--;)if(t[e].getAttribute(&quot;cf-hash&quot;))return t[e]}();if(t&amp;&amp;t.previousSibling){var e,r,n,i,c=t.previousSibling,a=c.getAttribute(&quot;data-cfemail&quot;);if(a){for(e=&quot;&quot;,r=parseInt(a.substr(0,2),16),n=2;a.length-n;n+=2)i=parseInt(a.substr(n,2),16)^r,e+=String.fromCharCode(i);e=document.createTextNode(e),c.parentNode.replaceChild(e,c)}}}catch(u){}}();/* ]]&gt; */&lt;/script&gt;&quot;\n\n\nFacebook Fan Page: http://www . facebook . com / p2pdl\n\n                                  Enjoy!","torrent":{"xt":"urn:btih:498eb22edb93e336cd204d47adce74fe80a0c033","amp;dn":"Alicia+Keys+-+Girl+On+Fire+%28Ft.+Nicki+Minaj%29+%7BM4A%2BMP4%7D+%281080p%29x2","amp;tr":["udp%3A%2F%2Ftracker.openbittorrent.com%3A80","udp%3A%2F%2Fopen.demonii.com%3A1337","udp%3A%2F%2Ftracker.coppersurfer.tk%3A6969","udp%3A%2F%2Fexodus.desync.com%3A6969"],"infoHash":"498eb22edb93e336cd204d47adce74fe80a0c033","infoHashBuffer":{"type":"Buffer","data":[73,142,178,46,219,147,227,54,205,32,77,71,173,206,116,254,128,160,192,51]},"announce":[],"urlList":[]}}